<svg xmlns="http://www.w3.org/2000/svg" width="1200" height="520" viewBox="0 0 1200 520">
  <rect width="1200" height="520" fill="#f7fafc"/>
  <text x="70" y="70" fill="#17324d" font-family="Arial, sans-serif" font-size="34" font-weight="700">CUPL SJC Notice Watch Workflow</text>
  <g font-family="Arial, sans-serif" font-size="21" fill="#14243a">
    <rect x="70" y="130" width="220" height="110" rx="18" fill="#ffffff" stroke="#cfd9e8"/>
    <text x="105" y="178">Public pages</text><text x="105" y="212" fill="#64748b">tzgg1 / xyxw</text>
    <rect x="370" y="130" width="220" height="110" rx="18" fill="#ffffff" stroke="#cfd9e8"/>
    <text x="415" y="178">scraper.py</text><text x="402" y="212" fill="#64748b">list + detail title</text>
    <rect x="670" y="130" width="220" height="110" rx="18" fill="#ffffff" stroke="#cfd9e8"/>
    <text x="715" y="178">data/ archive</text><text x="712" y="212" fill="#64748b">JSON / CSV</text>
    <rect x="370" y="320" width="220" height="110" rx="18" fill="#ffffff" stroke="#cfd9e8"/>
    <text x="410" y="368">GitHub Actions</text><text x="415" y="402" fill="#64748b">daily update</text>
    <rect x="670" y="320" width="220" height="110" rx="18" fill="#ffffff" stroke="#cfd9e8"/>
    <text x="722" y="368">Dashboard</text><text x="714" y="402" fill="#64748b">search / export</text>
  </g>
  <g stroke="#c7502f" stroke-width="4" fill="none" marker-end="url(#arrow)">
    <path d="M290 185 H370"/><path d="M590 185 H670"/><path d="M480 240 V320"/><path d="M590 375 H670"/><path d="M780 240 V320"/>
  </g>
  <defs><marker id="arrow" markerWidth="10" markerHeight="10" refX="8" refY="3" orient="auto"><path d="M0,0 L0,6 L9,3 z" fill="#c7502f"/></marker></defs>
</svg>